<?xml version="1.0" encoding="UTF-8"?>
<svg id="Camada_2" data-name="Camada 2" xmlns="http://www.w3.org/2000/svg" viewBox="0 0 129.06 173.54">
  <defs>
    <style>
      .cls-1 {
        stroke-width: 2.58px;
      }

      .cls-1, .cls-2 {
        fill: none;
        stroke: #9caf88;
        stroke-miterlimit: 10;
      }

      .cls-2 {
        stroke-width: 2.71px;
      }
    </style>
  </defs>
  <g id="Conteudo">
    <g>
      <path class="cls-2" d="M1.9,97.82c4.08-30.94,30.56-54.82,62.62-54.82,29.37,0,54.05,20.05,61.12,47.2"/>
      <path class="cls-2" d="M87.87,163.86c0,1.31-.04,2.62-.12,3.92-7.19,2.85-15.04,4.41-23.24,4.41-34.88,0-63.16-28.28-63.16-63.16,0-1.31.04-2.62.12-3.92,7.19-2.85,15.03-4.41,23.24-4.41,34.88,0,63.16,28.28,63.16,63.16Z"/>
      <path class="cls-2" d="M66.96,113.05c14.19-13.91,34.71-20.92,55.73-17.04,1.29.24,2.57.52,3.83.83,1.5,7.59,1.61,15.59.12,23.65-3.84,20.78-17.44,37.28-35.19,45.66"/>
      <path class="cls-2" d="M55,36.85h17.86c1.24,0,2.37-.69,2.94-1.78l5.39-10.33c.67-1.29.43-2.86-.6-3.88l-.4-.4c-.62-.62-1.47-.97-2.35-.97h-28.56c-1.19,0-2.28.63-2.88,1.66h0c-.57.99-.59,2.21-.05,3.22l5.72,10.73c.58,1.08,1.7,1.76,2.93,1.76Z"/>
      <path class="cls-1" d="M59.21,1.29h9.12c1.19,0,2.16.97,2.16,2.16v11.28h-13.45V3.45c0-1.19.97-2.16,2.16-2.16Z"/>
      <circle class="cls-2" cx="63.77" cy="8.01" r="2.04"/>
    </g>
  </g>
</svg>