<?xml version="1.0" encoding="UTF-8"?>
<svg id="Camada_2" data-name="Camada 2" xmlns="http://www.w3.org/2000/svg" viewBox="0 0 170.87 170.87">
  <defs>
    <style>
      .cls-1 {
        stroke-width: 1.78px;
      }

      .cls-1, .cls-2 {
        fill: none;
      }

      .cls-1, .cls-2, .cls-3 {
        stroke: #000;
        stroke-miterlimit: 10;
      }

      .cls-2 {
        stroke-width: 1.86px;
      }

      .cls-3 {
        fill: #fff;
        stroke-width: .61px;
      }
    </style>
  </defs>
  <g id="Conteudo">
    <g>
      <circle class="cls-3" cx="85.44" cy="85.44" r="85.13"/>
      <g>
        <path class="cls-2" d="M42.35,93.06c2.81-21.28,21.02-37.72,43.08-37.72,20.2,0,37.19,13.79,42.05,32.47"/>
        <path class="cls-2" d="M101.5,138.49c0,.9-.03,1.8-.08,2.69-4.95,1.96-10.34,3.04-15.99,3.04-24,0-43.45-19.45-43.45-43.45,0-.9.03-1.8.08-2.69,4.95-1.96,10.34-3.04,15.99-3.04,24,0,43.45,19.45,43.45,43.45Z"/>
        <path class="cls-2" d="M87.11,103.54c9.76-9.57,23.88-14.39,38.34-11.72.89.16,1.77.36,2.64.57,1.03,5.22,1.11,10.72.08,16.27-2.64,14.29-12,25.65-24.21,31.41"/>
        <path class="cls-2" d="M78.88,51.11h12.29c.85,0,1.63-.47,2.02-1.23l3.71-7.11c.46-.88.3-1.97-.41-2.67l-.28-.28c-.43-.43-1.01-.67-1.61-.67h-19.65c-.82,0-1.57.44-1.98,1.14h0c-.39.68-.41,1.52-.04,2.21l3.94,7.38c.4.74,1.17,1.21,2.01,1.21Z"/>
        <path class="cls-1" d="M81.77,26.65h6.28c.82,0,1.49.67,1.49,1.49v7.76h-9.25v-7.76c0-.82.67-1.49,1.49-1.49Z"/>
        <circle class="cls-2" cx="84.91" cy="31.28" r="1.4"/>
      </g>
    </g>
  </g>
</svg>