<?xml version="1.0" encoding="UTF-8"?>
<svg id="Camada_2" data-name="Camada 2" xmlns="http://www.w3.org/2000/svg" viewBox="0 0 802.17 173.54">
  <defs>
    <style>
      .cls-1 {
        stroke-width: 2.58px;
      }

      .cls-1, .cls-2 {
        fill: none;
        stroke: #9caf88;
        stroke-miterlimit: 10;
      }

      .cls-2 {
        stroke-width: 2.71px;
      }
    </style>
  </defs>
  <g id="Conteudo">
    <g>
      <g>
        <path class="cls-2" d="M1.9,97.82c4.08-30.94,30.56-54.82,62.62-54.82,29.37,0,54.05,20.05,61.12,47.2"/>
        <path class="cls-2" d="M87.87,163.86c0,1.31-.04,2.62-.12,3.92-7.19,2.85-15.04,4.41-23.24,4.41-34.88,0-63.16-28.28-63.16-63.16,0-1.31.04-2.62.12-3.92,7.19-2.85,15.03-4.41,23.24-4.41,34.88,0,63.16,28.28,63.16,63.16Z"/>
        <path class="cls-2" d="M66.96,113.05c14.19-13.91,34.71-20.92,55.73-17.04,1.29.24,2.57.52,3.83.83,1.5,7.59,1.61,15.59.12,23.65-3.84,20.78-17.44,37.28-35.19,45.66"/>
        <path class="cls-2" d="M55,36.85h17.86c1.24,0,2.37-.69,2.94-1.78l5.39-10.33c.67-1.29.43-2.86-.6-3.88l-.4-.4c-.62-.62-1.47-.97-2.35-.97h-28.56c-1.19,0-2.28.63-2.88,1.66h0c-.57.99-.59,2.21-.05,3.22l5.72,10.73c.58,1.08,1.7,1.76,2.93,1.76Z"/>
        <path class="cls-1" d="M59.21,1.29h9.12c1.19,0,2.16.97,2.16,2.16v11.28h-13.45V3.45c0-1.19.97-2.16,2.16-2.16Z"/>
        <circle class="cls-2" cx="63.77" cy="8.01" r="2.04"/>
      </g>
      <path d="M152.97,89.19c0-2.95.87-5.29,2.61-7.03,1.74-1.74,4.23-2.61,7.47-2.61h13.34c13.58,0,20.37,5.51,20.37,16.52,0,5.22-1.57,9.22-4.71,11.99-3.14,2.78-7.71,4.17-13.7,4.17l13.05,13.34c.53.53.8,1.23.8,2.1,0,.97-.39,1.76-1.16,2.39-.73.58-1.47.87-2.25.87-1.16,0-2.2-.53-3.12-1.59l-16.38-17.03h-8.99v15.15c0,1.11-.34,1.98-1.01,2.61-.68.63-1.57.94-2.68.94s-1.99-.31-2.65-.94-.98-1.5-.98-2.61v-38.27ZM176.52,106.52c4.49,0,7.76-.8,9.78-2.39,2.03-1.59,3.04-4.28,3.04-8.04s-1.05-6.56-3.15-8.23c-2.1-1.67-5.33-2.5-9.68-2.5h-12.68c-1.06,0-1.92.35-2.57,1.05-.65.7-.98,1.66-.98,2.86v17.25h16.23Z"/>
      <path d="M202.92,130.11c-.61-.6-.91-1.44-.91-2.5v-27.32c0-6.72,1.91-11.97,5.73-15.76,3.82-3.79,9.08-5.69,15.8-5.69,4.44,0,8.3.86,11.56,2.57,3.26,1.72,5.75,4.19,7.46,7.43,1.72,3.24,2.57,7.06,2.57,11.45v27.32c0,1.06-.31,1.9-.94,2.5-.63.6-1.47.91-2.54.91s-1.84-.3-2.46-.91c-.63-.6-.94-1.44-.94-2.5v-14.79h-29.43v14.79c0,1.06-.3,1.9-.91,2.5-.6.6-1.44.91-2.5.91s-1.9-.3-2.5-.91ZM238.25,107.31v-7.25c0-5.02-1.26-8.88-3.77-11.56-2.51-2.68-6.16-4.02-10.94-4.02s-8.43,1.32-10.94,3.95c-2.51,2.63-3.77,6.51-3.77,11.63v7.25h29.43Z"/>
      <path d="M255.15,130.11c-.6-.6-.91-1.44-.91-2.5v-45.37c0-1.06.3-1.9.91-2.5.6-.6,1.41-.91,2.43-.91s1.91.3,2.54.91c.63.61.94,1.44.94,2.5v45.37c0,1.06-.32,1.9-.94,2.5-.63.6-1.47.91-2.54.91s-1.82-.3-2.43-.91ZM255.4,71.51c0-.34.07-.68.22-1.01l4.35-10.29c.63-1.55,1.57-2.32,2.83-2.32.48,0,1.06.14,1.74.43,1.26.68,1.88,1.5,1.88,2.46,0,.48-.17,1.01-.51,1.59l-5.73,10c-.58.92-1.38,1.38-2.39,1.38-.34,0-.7-.07-1.09-.22-.87-.43-1.3-1.11-1.3-2.03Z"/>
      <path d="M272.36,128.4c-1.52-1.26-2.28-3.04-2.28-5.36,0-1.74.35-3.24,1.05-4.49.7-1.26,1.97-2.58,3.8-3.99l29.43-23.41c.82-.68,1.4-1.29,1.74-1.85.34-.56.51-1.24.51-2.07,0-.72-.22-1.27-.65-1.63s-1.16-.54-2.17-.54h-28.56c-1.11,0-2.02-.24-2.72-.72s-1.05-1.14-1.05-1.96c0-.92.34-1.62,1.01-2.1.68-.48,1.59-.72,2.75-.72h29.71c2.71,0,4.82.61,6.34,1.81,1.52,1.21,2.28,3.02,2.28,5.44,0,1.84-.34,3.35-1.01,4.53-.68,1.19-1.96,2.5-3.84,3.95l-29.5,23.41c-.82.68-1.39,1.3-1.7,1.88-.31.58-.47,1.28-.47,2.1,0,1.4,1.09,2.1,3.26,2.1h30.15c1.06,0,1.95.24,2.65.72.7.48,1.05,1.14,1.05,1.96,0,.92-.35,1.62-1.05,2.1s-1.58.72-2.65.72h-31.74c-2.71,0-4.82-.63-6.34-1.88Z"/>
      <path d="M323.6,127.75c-1.79-1.69-2.68-4.03-2.68-7.03v-31.82c0-2.9.87-5.18,2.61-6.85s4.15-2.5,7.25-2.5h22.47c2.27,0,3.41.94,3.41,2.83,0,.82-.3,1.47-.91,1.96-.61.48-1.44.72-2.5.72h-21.89c-1.11,0-1.99.36-2.65,1.09-.65.73-.98,1.69-.98,2.9v12.54h20c2.27,0,3.41.94,3.41,2.83,0,.87-.3,1.55-.91,2.03-.61.48-1.44.73-2.5.73h-20v13.63c0,1.21.33,2.17.98,2.9.65.72,1.53,1.09,2.65,1.09h23.48c1.11,0,1.96.23,2.54.69.58.46.87,1.15.87,2.07,0,.87-.3,1.55-.91,2.03s-1.44.72-2.5.72h-23.85c-3.14,0-5.61-.84-7.39-2.54Z"/>
      <path d="M374.04,129.66c-3.99-1.57-7.21-3.76-9.68-6.56-.48-.63-.72-1.23-.72-1.81,0-.92.41-1.72,1.23-2.39.53-.43,1.09-.65,1.67-.65.87,0,1.76.46,2.68,1.38,2.08,2.13,4.65,3.78,7.72,4.96,3.07,1.18,6.44,1.78,10.11,1.78,3.86,0,6.87-.71,9.02-2.14,2.15-1.42,3.22-3.42,3.22-5.98,0-2.37-1.06-4.29-3.19-5.76s-5.77-2.77-10.94-3.88c-7.1-1.59-12.23-3.6-15.37-6.02-3.14-2.42-4.71-5.6-4.71-9.57,0-2.66.8-4.98,2.39-6.96,1.59-1.98,3.87-3.52,6.81-4.6,2.95-1.09,6.38-1.63,10.29-1.63,4.45,0,8.43.76,11.96,2.28,3.53,1.52,6.09,3.59,7.68,6.2.39.58.58,1.18.58,1.81,0,.97-.46,1.76-1.38,2.39-.43.29-.94.43-1.52.43-.53,0-1.06-.13-1.59-.4-.53-.26-.97-.62-1.3-1.05-1.4-1.93-3.35-3.42-5.83-4.46-2.49-1.04-5.35-1.56-8.59-1.56-4.11,0-7.24.64-9.39,1.92-2.15,1.28-3.23,3.15-3.23,5.62,0,1.5.43,2.79,1.3,3.88.87,1.09,2.3,2.05,4.28,2.9,1.98.85,4.71,1.68,8.19,2.5,7.3,1.69,12.54,3.78,15.73,6.27,3.19,2.49,4.78,5.71,4.78,9.68,0,2.8-.79,5.23-2.35,7.28-1.57,2.05-3.81,3.65-6.7,4.78-2.9,1.14-6.28,1.7-10.15,1.7-4.69,0-9.02-.78-13.01-2.35Z"/>
      <path d="M432.27,129.61c-2.26-.94-3.99-2.28-5.19-4.03-1.19-1.75-1.79-3.78-1.79-6.1,0-2.68.85-5,2.54-6.95,1.69-1.95,4.1-3.51,7.23-4.69-1.51-1.18-2.68-2.4-3.5-3.67s-1.24-2.68-1.24-4.22c0-2.68.87-4.8,2.62-6.34,1.75-1.54,4.16-2.32,7.25-2.32,2.91,0,5.23.77,6.98,2.32,1.75,1.54,2.62,3.68,2.62,6.4,0,1.84-.59,3.53-1.77,5.07-1.18,1.54-2.87,2.85-5.08,3.92l10.15,9.6c.77-1.32,1.34-2.64,1.71-3.94.37-1.3.64-2.84.83-4.61.07-.7.32-1.25.74-1.65.42-.4.97-.61,1.63-.61.88,0,1.56.29,2.04.86.48.57.68,1.22.61,1.96-.7,4.74-2.01,8.55-3.92,11.42l5.35,5.07c.51.52.77,1.05.77,1.6s-.26,1.09-.77,1.6c-.44.44-.97.66-1.6.66-.59,0-1.07-.18-1.43-.55l-5.35-5.02c-1.29,1.36-3.06,2.64-5.32,3.83-2.26,1.2-4.96,1.79-8.08,1.79s-5.76-.47-8.03-1.41ZM446.14,125.64c1.8-.79,3.26-1.92,4.36-3.39l-11.92-11.25c-2.72.81-4.78,1.89-6.18,3.25-1.4,1.36-2.1,3.11-2.1,5.24s.9,3.94,2.7,5.3c1.8,1.36,4.21,2.04,7.23,2.04,2.13,0,4.1-.39,5.9-1.19ZM444.82,99.96c0-1.4-.42-2.49-1.27-3.28-.85-.79-2-1.19-3.47-1.19s-2.68.4-3.5,1.19c-.83.79-1.24,1.87-1.24,3.23,0,1.18.35,2.22,1.05,3.12.7.9,1.78,1.92,3.25,3.06,3.46-1.58,5.19-3.62,5.19-6.12Z"/>
      <path d="M488.69,131.11c-.61-.6-.91-1.44-.91-2.5v-27.32c0-6.72,1.91-11.97,5.73-15.76,3.82-3.79,9.08-5.69,15.8-5.69,4.45,0,8.3.86,11.56,2.57,3.26,1.72,5.75,4.19,7.46,7.43,1.72,3.24,2.57,7.06,2.57,11.45v27.32c0,1.06-.31,1.9-.94,2.5-.63.6-1.47.91-2.54.91s-1.84-.3-2.46-.91c-.63-.6-.94-1.44-.94-2.5v-14.79h-29.43v14.79c0,1.06-.3,1.9-.91,2.5-.61.6-1.44.91-2.5.91s-1.9-.3-2.5-.91ZM524.02,108.31v-7.25c0-5.02-1.26-8.88-3.77-11.56-2.51-2.68-6.16-4.02-10.94-4.02s-8.43,1.32-10.94,3.95c-2.51,2.63-3.77,6.51-3.77,11.63v7.25h29.43Z"/>
      <path d="M537.55,90.19c0-2.95.87-5.29,2.61-7.03,1.74-1.74,4.23-2.61,7.46-2.61h13.34c13.58,0,20.37,5.51,20.37,16.52,0,5.22-1.57,9.22-4.71,11.99-3.14,2.78-7.71,4.17-13.7,4.17l13.05,13.34c.53.53.8,1.23.8,2.1,0,.97-.39,1.76-1.16,2.39-.73.58-1.47.87-2.25.87-1.16,0-2.2-.53-3.12-1.59l-16.38-17.03h-8.99v15.15c0,1.11-.34,1.98-1.01,2.61s-1.57.94-2.68.94-1.99-.31-2.65-.94-.98-1.5-.98-2.61v-38.27ZM561.11,107.52c4.49,0,7.76-.8,9.78-2.39,2.03-1.59,3.04-4.28,3.04-8.04s-1.05-6.56-3.15-8.23-5.33-2.5-9.68-2.5h-12.68c-1.06,0-1.92.35-2.57,1.05-.65.7-.98,1.66-.98,2.86v17.25h16.24Z"/>
      <path d="M596.2,128.75c-3.99-2.17-7.08-5.23-9.28-9.17-2.2-3.94-3.3-8.49-3.3-13.66s1.1-9.72,3.3-13.66c2.2-3.94,5.29-6.99,9.28-9.17,3.99-2.17,8.54-3.26,13.66-3.26s9.68,1.09,13.66,3.26c3.99,2.17,7.08,5.23,9.28,9.17,2.2,3.94,3.3,8.49,3.3,13.66s-1.1,9.72-3.3,13.66c-2.2,3.94-5.29,6.99-9.28,9.17-3.99,2.17-8.54,3.26-13.66,3.26s-9.68-1.09-13.66-3.26ZM619.97,123.93c2.92-1.62,5.21-3.97,6.85-7.07,1.64-3.09,2.46-6.74,2.46-10.94s-.85-7.98-2.54-11.05c-1.69-3.07-4.03-5.4-7.03-6.99-3-1.59-6.43-2.39-10.29-2.39s-7.02.82-9.89,2.46c-2.88,1.64-5.1,4-6.67,7.07-1.57,3.07-2.36,6.7-2.36,10.91s.81,7.85,2.43,10.94c1.62,3.09,3.89,5.45,6.81,7.07,2.92,1.62,6.29,2.43,10.11,2.43s7.19-.81,10.11-2.43Z"/>
      <path d="M641.82,131.11c-.6-.6-.91-1.44-.91-2.5v-31.74c0-5.31,1.49-9.48,4.46-12.5s7.09-4.53,12.36-4.53c2.9,0,5.58.72,8.04,2.17,2.46,1.45,4.4,3.43,5.8,5.94,1.4-2.56,3.31-4.55,5.73-5.98,2.42-1.42,5.1-2.14,8.04-2.14,5.27,0,9.4,1.51,12.39,4.53,3,3.02,4.49,7.19,4.49,12.5v31.74c0,1.06-.32,1.9-.94,2.5-.63.6-1.47.91-2.54.91s-1.88-.3-2.46-.91c-.58-.6-.87-1.44-.87-2.5v-31.74c0-3.82-.8-6.67-2.39-8.55-1.59-1.88-4.23-2.83-7.9-2.83-3.19,0-5.69,1-7.5,3.01-1.81,2.01-2.72,4.8-2.72,8.37v31.74c0,1.06-.3,1.9-.91,2.5-.61.6-1.41.91-2.43.91-1.06,0-1.88-.3-2.46-.91-.58-.6-.87-1.44-.87-2.5v-31.74c0-3.48-.93-6.24-2.79-8.3-1.86-2.05-4.36-3.08-7.5-3.08-3.62,0-6.23.96-7.83,2.86-1.59,1.91-2.39,4.75-2.39,8.52v31.74c0,1.06-.31,1.9-.94,2.5-.63.6-1.47.91-2.54.91s-1.82-.3-2.43-.91Z"/>
      <path d="M710.86,131.11c-.61-.6-.91-1.44-.91-2.5v-27.32c0-6.72,1.91-11.97,5.73-15.76,3.82-3.79,9.08-5.69,15.8-5.69,4.44,0,8.3.86,11.56,2.57,3.26,1.72,5.75,4.19,7.46,7.43,1.72,3.24,2.57,7.06,2.57,11.45v27.32c0,1.06-.31,1.9-.94,2.5-.63.6-1.47.91-2.54.91s-1.84-.3-2.46-.91c-.63-.6-.94-1.44-.94-2.5v-14.79h-29.43v14.79c0,1.06-.3,1.9-.91,2.5-.6.6-1.44.91-2.5.91s-1.9-.3-2.5-.91ZM746.19,108.31v-7.25c0-5.02-1.26-8.88-3.77-11.56-2.51-2.68-6.16-4.02-10.94-4.02s-8.43,1.32-10.94,3.95c-2.51,2.63-3.77,6.51-3.77,11.63v7.25h29.43Z"/>
      <path d="M769.96,129.66c-3.99-1.57-7.21-3.76-9.68-6.56-.48-.63-.72-1.23-.72-1.81,0-.92.41-1.72,1.23-2.39.53-.43,1.09-.65,1.67-.65.87,0,1.76.46,2.68,1.38,2.08,2.13,4.65,3.78,7.72,4.96,3.07,1.18,6.44,1.78,10.11,1.78,3.86,0,6.87-.71,9.02-2.14,2.15-1.42,3.22-3.42,3.22-5.98,0-2.37-1.06-4.29-3.19-5.76-2.13-1.47-5.77-2.77-10.94-3.88-7.1-1.59-12.23-3.6-15.37-6.02-3.14-2.42-4.71-5.6-4.71-9.57,0-2.66.8-4.98,2.39-6.96,1.59-1.98,3.87-3.52,6.81-4.6,2.95-1.09,6.38-1.63,10.29-1.63,4.45,0,8.43.76,11.96,2.28,3.53,1.52,6.09,3.59,7.68,6.2.39.58.58,1.18.58,1.81,0,.97-.46,1.76-1.38,2.39-.43.29-.94.43-1.52.43-.53,0-1.06-.13-1.59-.4-.53-.26-.97-.62-1.3-1.05-1.4-1.93-3.35-3.42-5.83-4.46-2.49-1.04-5.35-1.56-8.59-1.56-4.11,0-7.24.64-9.39,1.92-2.15,1.28-3.23,3.15-3.23,5.62,0,1.5.43,2.79,1.3,3.88.87,1.09,2.3,2.05,4.28,2.9,1.98.85,4.71,1.68,8.19,2.5,7.3,1.69,12.54,3.78,15.73,6.27,3.19,2.49,4.78,5.71,4.78,9.68,0,2.8-.79,5.23-2.35,7.28-1.57,2.05-3.81,3.65-6.7,4.78-2.9,1.14-6.28,1.7-10.15,1.7-4.69,0-9.02-.78-13.01-2.35Z"/>
    </g>
  </g>
</svg>