<?xml version="1.0" encoding="UTF-8"?>
<svg id="Camada_2" xmlns="http://www.w3.org/2000/svg" version="1.1" viewBox="0 0 661.2 238">
  <!-- Generator: Adobe Illustrator 30.0.0, SVG Export Plug-In . SVG Version: 2.1.1 Build 123)  -->
  <defs>
    <style>
      .st0 {
        stroke-width: 3.5px;
      }

      .st0, .st1 {
        fill: none;
        stroke: #9caf88;
        stroke-miterlimit: 10;
      }

      .st1 {
        stroke-width: 3.7px;
      }
    </style>
  </defs>
  <g id="Conteudo">
    <g>
      <g>
        <path class="st1" d="M1.7,134.2C7.2,91.7,43.6,59,87.5,59s74.1,27.5,83.8,64.7"/>
        <path class="st1" d="M119.5,224.7c0,1.8,0,3.6-.2,5.4-9.9,3.9-20.6,6.1-31.9,6.1C39.7,236.1.9,197.4.9,149.5s0-3.6.2-5.4c9.9-3.9,20.6-6.1,31.9-6.1,47.8,0,86.6,38.8,86.6,86.6h0Z"/>
        <path class="st1" d="M90.9,155c19.5-19.1,47.6-28.7,76.4-23.4,1.8.3,3.5.7,5.2,1.1,2.1,10.4,2.2,21.4.2,32.4-5.3,28.5-23.9,51.1-48.2,62.6"/>
        <path class="st1" d="M74.5,50.6h24.5c1.7,0,3.2-.9,4-2.5l7.4-14.2c.9-1.8.6-3.9-.8-5.3l-.6-.5c-.8-.9-2-1.3-3.2-1.3h-39.2c-1.6,0-3.1.9-3.9,2.3h0c-.8,1.4-.8,3,0,4.4l7.8,14.7c.8,1.5,2.3,2.4,4,2.4h0Z"/>
        <path class="st0" d="M80.2,1.8h12.5c1.6,0,3,1.3,3,3v15.5h-18.4V4.8c0-1.6,1.3-3,3-3h0Z"/>
        <circle class="st1" cx="86.5" cy="11" r="2.8"/>
      </g>
      <g>
        <path d="M207.1,85.9c0-4.2,1.2-7.6,3.8-10.1s6.1-3.8,10.8-3.8h19.2c19.6,0,29.4,7.9,29.4,23.8s-2.3,13.3-6.8,17.3c-4.5,4-11.1,6-19.8,6l18.8,19.2c.8.8,1.1,1.8,1.1,3s-.6,2.5-1.7,3.4c-1,.8-2.1,1.2-3.2,1.2-1.7,0-3.2-.8-4.5-2.3l-23.6-24.6h-13v21.8c0,1.6-.5,2.9-1.5,3.8-1,.9-2.3,1.4-3.9,1.4s-2.9-.4-3.8-1.4-1.4-2.2-1.4-3.8v-55.2h0ZM241.1,110.9c6.5,0,11.2-1.2,14.1-3.4,2.9-2.3,4.4-6.2,4.4-11.6s-1.5-9.5-4.5-11.9-7.7-3.6-13.9-3.6h-18.3c-1.5,0-2.8.5-3.7,1.5-.9,1-1.4,2.4-1.4,4.1v24.9h23.4,0Z"/>
        <path d="M279.2,144.9c-.9-.9-1.3-2.1-1.3-3.6v-39.4c0-9.7,2.8-17.3,8.3-22.7,5.5-5.5,13.1-8.2,22.8-8.2s12,1.2,16.7,3.7,8.3,6.1,10.8,10.7c2.5,4.7,3.7,10.2,3.7,16.5v39.4c0,1.5-.5,2.7-1.4,3.6-.9.9-2.1,1.3-3.7,1.3s-2.6-.4-3.5-1.3c-.9-.9-1.4-2.1-1.4-3.6v-21.3h-42.4v21.3c0,1.5-.4,2.7-1.3,3.6s-2.1,1.3-3.6,1.3-2.7-.4-3.6-1.3h0ZM330.1,112v-10.4c0-7.2-1.8-12.8-5.4-16.7-3.6-3.9-8.9-5.8-15.8-5.8s-12.2,1.9-15.8,5.7c-3.6,3.8-5.4,9.4-5.4,16.8v10.4h42.4,0Z"/>
        <path d="M354.5,144.9c-.9-.9-1.3-2.1-1.3-3.6v-65.4c0-1.5.4-2.7,1.3-3.6.9-.9,2-1.3,3.5-1.3s2.8.4,3.7,1.3c.9.9,1.4,2.1,1.4,3.6v65.4c0,1.5-.5,2.7-1.4,3.6-.9.9-2.1,1.3-3.7,1.3s-2.6-.4-3.5-1.3ZM354.9,60.4c0-.5.1-1,.3-1.5l6.3-14.8c.9-2.2,2.3-3.3,4.1-3.3s1.5.2,2.5.6c1.8,1,2.7,2.2,2.7,3.5s-.2,1.5-.7,2.3l-8.3,14.4c-.8,1.3-2,2-3.5,2s-1-.1-1.6-.3c-1.2-.6-1.9-1.6-1.9-2.9h0Z"/>
        <path d="M379.3,142.5c-2.2-1.8-3.3-4.4-3.3-7.7s.5-4.7,1.5-6.5c1-1.8,2.8-3.7,5.5-5.8l42.4-33.8c1.2-1,2-1.9,2.5-2.7.5-.8.7-1.8.7-3s-.3-1.8-.9-2.3-1.7-.8-3.1-.8h-41.2c-1.6,0-2.9-.3-3.9-1s-1.5-1.6-1.5-2.8.5-2.3,1.5-3c1-.7,2.3-1,4-1h42.9c3.9,0,7,.9,9.1,2.6,2.2,1.7,3.3,4.3,3.3,7.8s-.5,4.8-1.5,6.5c-1,1.7-2.8,3.6-5.5,5.7l-42.5,33.8c-1.2,1-2,1.9-2.5,2.7-.5.8-.7,1.9-.7,3,0,2,1.6,3,4.7,3h43.5c1.5,0,2.8.4,3.8,1,1,.7,1.5,1.6,1.5,2.8s-.5,2.3-1.5,3c-1,.7-2.3,1-3.8,1h-45.8c-3.9,0-7-.9-9.1-2.7h0Z"/>
        <path d="M453.2,141.5c-2.6-2.4-3.9-5.8-3.9-10.1v-45.9c0-4.2,1.2-7.5,3.8-9.9,2.5-2.4,6-3.6,10.5-3.6h32.4c3.3,0,4.9,1.4,4.9,4.1s-.4,2.1-1.3,2.8c-.9.7-2.1,1-3.6,1h-31.6c-1.6,0-2.9.5-3.8,1.6s-1.4,2.4-1.4,4.2v18.1h28.8c3.3,0,4.9,1.4,4.9,4.1s-.4,2.2-1.3,2.9-2.1,1.1-3.6,1.1h-28.8v19.6c0,1.7.5,3.1,1.4,4.2.9,1,2.2,1.6,3.8,1.6h33.9c1.6,0,2.8.3,3.7,1s1.2,1.6,1.2,3-.4,2.2-1.3,2.9-2.1,1-3.6,1h-34.4c-4.5,0-8.1-1.2-10.7-3.7h0Z"/>
        <path d="M525.9,142.8c-5.8-2.3-10.4-5.4-14-9.5-.7-.9-1-1.8-1-2.6,0-1.3.6-2.5,1.8-3.4.8-.6,1.6-.9,2.4-.9,1.2,0,2.5.7,3.9,2,3,3.1,6.7,5.4,11.1,7.2s9.3,2.6,14.6,2.6,9.9-1,13-3.1c3.1-2.1,4.7-4.9,4.7-8.6s-1.5-6.2-4.6-8.3-8.3-4-15.8-5.6c-10.2-2.3-17.6-5.2-22.2-8.7-4.5-3.5-6.8-8.1-6.8-13.8s1.2-7.2,3.5-10c2.3-2.9,5.6-5.1,9.8-6.6s9.2-2.3,14.8-2.3,12.2,1.1,17.2,3.3c5.1,2.2,8.8,5.2,11.1,8.9.6.8.8,1.7.8,2.6,0,1.4-.7,2.5-2,3.4-.6.4-1.4.6-2.2.6s-1.5-.2-2.3-.6c-.8-.4-1.4-.9-1.9-1.5-2-2.8-4.8-4.9-8.4-6.4-3.6-1.5-7.7-2.2-12.4-2.2s-10.4.9-13.5,2.8c-3.1,1.8-4.7,4.6-4.7,8.1s.6,4,1.9,5.6c1.3,1.6,3.3,3,6.2,4.2s6.8,2.4,11.8,3.6c10.5,2.4,18.1,5.4,22.7,9,4.6,3.6,6.9,8.2,6.9,13.9s-1.1,7.5-3.4,10.5-5.5,5.3-9.7,6.9-9.1,2.5-14.6,2.5-13-1.1-18.8-3.4h0Z"/>
        <path d="M609.9,144.2c-3.3-1.4-5.8-3.3-7.5-5.8-1.7-2.5-2.6-5.4-2.6-8.8s1.2-7.2,3.7-10c2.4-2.8,5.9-5.1,10.4-6.8-2.2-1.7-3.9-3.5-5-5.3s-1.8-3.9-1.8-6.1c0-3.9,1.3-6.9,3.8-9.2s6-3.3,10.5-3.3,7.5,1.1,10.1,3.3c2.5,2.2,3.8,5.3,3.8,9.2s-.8,5.1-2.5,7.3-4.1,4.1-7.3,5.7l14.6,13.8c1.1-1.9,1.9-3.8,2.5-5.7.5-1.9.9-4.1,1.2-6.6.1-1,.5-1.8,1.1-2.4.6-.6,1.4-.9,2.3-.9s2.2.4,2.9,1.2,1,1.8.9,2.8c-1,6.8-2.9,12.3-5.7,16.5l7.7,7.3c.7.7,1.1,1.5,1.1,2.3s-.4,1.6-1.1,2.3c-.6.6-1.4.9-2.3.9s-1.5-.3-2.1-.8l-7.7-7.2c-1.9,2-4.4,3.8-7.7,5.5-3.3,1.7-7.2,2.6-11.7,2.6s-8.3-.7-11.6-2h0ZM629.9,138.5c2.6-1.1,4.7-2.8,6.3-4.9l-17.2-16.2c-3.9,1.2-6.9,2.7-8.9,4.7-2,2-3,4.5-3,7.6s1.3,5.7,3.9,7.6c2.6,2,6.1,2.9,10.4,2.9s5.9-.6,8.5-1.7h0ZM628,101.4c0-2-.6-3.6-1.8-4.7-1.2-1.1-2.9-1.7-5-1.7s-3.9.6-5,1.7-1.8,2.7-1.8,4.7.5,3.2,1.5,4.5c1,1.3,2.6,2.8,4.7,4.4,5-2.3,7.5-5.2,7.5-8.8h0Z"/>
        <path d="M208.2,234.8c-.9-.9-1.3-2.1-1.3-3.6v-39.4c0-9.7,2.8-17.3,8.3-22.7,5.5-5.5,13.1-8.2,22.8-8.2s12,1.2,16.7,3.7c4.7,2.5,8.3,6.1,10.8,10.7,2.5,4.7,3.7,10.2,3.7,16.5v39.4c0,1.5-.5,2.7-1.4,3.6-.9.9-2.1,1.3-3.7,1.3s-2.6-.4-3.5-1.3c-.9-.9-1.4-2.1-1.4-3.6v-21.3h-42.4v21.3c0,1.5-.4,2.7-1.3,3.6s-2.1,1.3-3.6,1.3-2.7-.4-3.6-1.3h0ZM259.2,202v-10.4c0-7.2-1.8-12.8-5.4-16.7s-8.9-5.8-15.8-5.8-12.2,1.9-15.8,5.7-5.4,9.4-5.4,16.8v10.4h42.4,0Z"/>
        <path d="M278.7,175.8c0-4.2,1.2-7.6,3.8-10.1s6.1-3.8,10.8-3.8h19.2c19.6,0,29.4,7.9,29.4,23.8s-2.3,13.3-6.8,17.3c-4.5,4-11.1,6-19.8,6l18.8,19.2c.8.8,1.1,1.8,1.1,3s-.6,2.5-1.7,3.4c-1,.8-2.1,1.2-3.2,1.2-1.7,0-3.2-.8-4.5-2.3l-23.6-24.6h-13v21.8c0,1.6-.5,2.9-1.5,3.8s-2.3,1.4-3.9,1.4-2.9-.4-3.8-1.4-1.4-2.2-1.4-3.8v-55.2h0ZM312.7,200.8c6.5,0,11.2-1.1,14.1-3.4s4.4-6.2,4.4-11.6-1.5-9.5-4.5-11.9-7.7-3.6-14-3.6h-18.3c-1.5,0-2.8.5-3.7,1.5-.9,1-1.4,2.4-1.4,4.1v24.9h23.4Z"/>
        <path d="M363.3,231.4c-5.8-3.1-10.2-7.5-13.4-13.2-3.2-5.7-4.8-12.2-4.8-19.7s1.6-14,4.8-19.7c3.2-5.7,7.6-10.1,13.4-13.2s12.3-4.7,19.7-4.7,14,1.6,19.7,4.7,10.2,7.5,13.4,13.2c3.2,5.7,4.8,12.2,4.8,19.7s-1.6,14-4.8,19.7c-3.2,5.7-7.6,10.1-13.4,13.2s-12.3,4.7-19.7,4.7-14-1.6-19.7-4.7ZM397.5,224.5c4.2-2.3,7.5-5.7,9.9-10.2s3.5-9.7,3.5-15.8-1.2-11.5-3.7-15.9c-2.4-4.4-5.8-7.8-10.1-10.1-4.3-2.3-9.3-3.4-14.8-3.4s-10.1,1.2-14.3,3.6c-4.1,2.4-7.4,5.8-9.6,10.2-2.3,4.4-3.4,9.7-3.4,15.7s1.2,11.3,3.5,15.8,5.6,7.9,9.8,10.2c4.2,2.3,9.1,3.5,14.6,3.5s10.4-1.2,14.6-3.5h0Z"/>
        <path d="M429,234.8c-.9-.9-1.3-2.1-1.3-3.6v-45.8c0-7.7,2.1-13.7,6.4-18,4.3-4.4,10.2-6.5,17.8-6.5s8,1,11.6,3.1c3.5,2.1,6.3,4.9,8.4,8.6,2-3.7,4.8-6.6,8.3-8.6,3.5-2.1,7.4-3.1,11.6-3.1,7.6,0,13.5,2.2,17.9,6.5s6.5,10.4,6.5,18v45.8c0,1.5-.5,2.7-1.4,3.6-.9.9-2.1,1.3-3.7,1.3s-2.7-.4-3.5-1.3c-.8-.9-1.3-2.1-1.3-3.6v-45.8c0-5.5-1.1-9.6-3.5-12.3-2.3-2.7-6.1-4.1-11.4-4.1s-8.2,1.4-10.8,4.3c-2.6,2.9-3.9,6.9-3.9,12.1v45.8c0,1.5-.4,2.7-1.3,3.6s-2,1.3-3.5,1.3-2.7-.4-3.5-1.3c-.8-.9-1.2-2.1-1.2-3.6v-45.8c0-5-1.3-9-4-12-2.7-3-6.3-4.4-10.8-4.4s-9,1.4-11.3,4.1c-2.3,2.8-3.5,6.9-3.5,12.3v45.8c0,1.5-.5,2.7-1.4,3.6-.9.9-2.1,1.3-3.7,1.3s-2.6-.4-3.5-1.3h0Z"/>
        <path d="M528.6,234.8c-.9-.9-1.3-2.1-1.3-3.6v-39.4c0-9.7,2.8-17.3,8.3-22.7,5.5-5.5,13.1-8.2,22.8-8.2s12,1.2,16.7,3.7,8.3,6.1,10.8,10.7c2.5,4.7,3.7,10.2,3.7,16.5v39.4c0,1.5-.5,2.7-1.4,3.6s-2.1,1.3-3.7,1.3-2.7-.4-3.5-1.3c-.9-.9-1.4-2.1-1.4-3.6v-21.3h-42.4v21.3c0,1.5-.4,2.7-1.3,3.6s-2.1,1.3-3.6,1.3-2.7-.4-3.6-1.3h0ZM579.5,202v-10.4c0-7.2-1.8-12.8-5.4-16.7s-8.9-5.8-15.8-5.8-12.2,1.9-15.8,5.7c-3.6,3.8-5.4,9.4-5.4,16.8v10.4h42.4,0Z"/>
        <path d="M613.8,232.7c-5.8-2.3-10.4-5.4-14-9.5-.7-.9-1-1.8-1-2.6,0-1.3.6-2.5,1.8-3.4.8-.6,1.6-.9,2.4-.9,1.2,0,2.5.7,3.9,2,3,3.1,6.7,5.4,11.1,7.2s9.3,2.6,14.6,2.6,9.9-1,13-3.1c3.1-2.1,4.7-4.9,4.7-8.6s-1.5-6.2-4.6-8.3c-3.1-2.1-8.3-4-15.8-5.6-10.2-2.3-17.6-5.2-22.2-8.7-4.5-3.5-6.8-8.1-6.8-13.8s1.2-7.2,3.5-10c2.3-2.9,5.6-5.1,9.8-6.6,4.2-1.6,9.2-2.4,14.8-2.4s12.2,1.1,17.2,3.3c5.1,2.2,8.8,5.2,11.1,8.9.6.8.8,1.7.8,2.6,0,1.4-.7,2.5-2,3.4-.6.4-1.4.6-2.2.6s-1.5-.2-2.3-.6c-.8-.4-1.4-.9-1.9-1.5-2-2.8-4.8-4.9-8.4-6.4-3.6-1.5-7.7-2.2-12.4-2.2s-10.4.9-13.5,2.8c-3.1,1.9-4.7,4.6-4.7,8.1s.6,4,1.9,5.6c1.3,1.6,3.3,3,6.2,4.2,2.9,1.2,6.8,2.4,11.8,3.6,10.5,2.4,18.1,5.4,22.7,9s6.9,8.2,6.9,13.9-1.1,7.5-3.4,10.5-5.5,5.3-9.7,6.9-9.1,2.5-14.6,2.5-13-1.1-18.8-3.4h0Z"/>
      </g>
    </g>
  </g>
</svg>