<?xml version="1.0" encoding="UTF-8"?>
<svg id="Camada_2" data-name="Camada 2" xmlns="http://www.w3.org/2000/svg" viewBox="0 0 661.24 237.97">
  <defs>
    <style>
      .cls-1 {
        stroke-width: 3.54px;
      }

      .cls-1, .cls-2 {
        fill: none;
        stroke: #9caf88;
        stroke-miterlimit: 10;
      }

      .cls-2 {
        stroke-width: 3.72px;
      }
    </style>
  </defs>
  <g id="Camada_2-2" data-name="Camada 2">
    <g id="Conteudo">
      <g>
        <g>
          <path class="cls-2" d="M2.6,134.14c5.59-42.43,41.9-75.18,85.86-75.18,40.27,0,74.12,27.49,83.81,64.72"/>
          <path class="cls-2" d="M120.49,224.69c0,1.8-.06,3.59-.16,5.37-9.86,3.91-20.62,6.05-31.87,6.05C40.63,236.11,1.86,197.34,1.86,149.5c0-1.8.06-3.59.16-5.37,9.86-3.91,20.61-6.05,31.87-6.05,47.83,0,86.61,38.77,86.61,86.61h-.01Z"/>
          <path class="cls-2" d="M91.82,155.02c19.46-19.07,47.59-28.69,76.42-23.36,1.77.33,3.52.71,5.25,1.13,2.05,10.41,2.21,21.37.16,32.44-5.26,28.49-23.91,51.13-48.25,62.62"/>
          <path class="cls-2" d="M75.42,50.53h24.49c1.7,0,3.25-.94,4.04-2.45l7.39-14.17c.92-1.76.59-3.92-.82-5.32l-.55-.55c-.85-.85-2.01-1.33-3.22-1.33h-39.17c-1.63,0-3.13.87-3.94,2.28h0c-.78,1.36-.81,3.03-.07,4.41l7.84,14.72c.79,1.48,2.34,2.41,4.02,2.41h0Z"/>
          <path class="cls-1" d="M81.19,1.77h12.51c1.64,0,2.96,1.33,2.96,2.96v15.47h-18.44V4.74c0-1.64,1.33-2.96,2.96-2.96h.01Z"/>
          <circle class="cls-2" cx="87.44" cy="10.99" r="2.79"/>
        </g>
        <g>
          <path d="M208.09,85.9c0-4.25,1.25-7.63,3.76-10.14s6.1-3.76,10.77-3.76h19.23c19.58,0,29.37,7.94,29.37,23.83,0,7.53-2.27,13.29-6.79,17.3-4.53,4.01-11.11,6.01-19.75,6.01l18.81,19.23c.77.77,1.15,1.78,1.15,3.03,0,1.39-.56,2.54-1.67,3.45-1.05.84-2.13,1.25-3.24,1.25-1.67,0-3.17-.77-4.49-2.3l-23.62-24.56h-12.96v21.84c0,1.6-.49,2.86-1.46,3.76-.98.9-2.27,1.36-3.87,1.36s-2.87-.45-3.81-1.36-1.41-2.16-1.41-3.76v-55.18h-.02ZM242.05,110.88c6.48,0,11.18-1.15,14.11-3.45,2.93-2.3,4.39-6.17,4.39-11.6s-1.52-9.46-4.55-11.86-7.68-3.61-13.95-3.61h-18.29c-1.53,0-2.77.51-3.71,1.52-.94,1.01-1.41,2.39-1.41,4.13v24.87h23.41,0Z"/>
          <path d="M280.12,144.89c-.87-.87-1.31-2.07-1.31-3.61v-39.4c0-9.68,2.75-17.26,8.26-22.73,5.5-5.47,13.1-8.2,22.78-8.2,6.41,0,11.97,1.24,16.67,3.71s8.29,6.05,10.76,10.71c2.47,4.67,3.71,10.17,3.71,16.51v39.4c0,1.53-.45,2.74-1.36,3.61-.91.87-2.13,1.31-3.66,1.31s-2.65-.44-3.55-1.31c-.91-.87-1.36-2.07-1.36-3.61v-21.32h-42.43v21.32c0,1.53-.44,2.74-1.31,3.61s-2.07,1.31-3.61,1.31-2.74-.44-3.61-1.31h.02ZM331.06,112.02v-10.45c0-7.24-1.81-12.8-5.43-16.67-3.62-3.87-8.88-5.8-15.78-5.8s-12.16,1.9-15.78,5.7c-3.62,3.8-5.43,9.39-5.43,16.77v10.45h42.43-.01Z"/>
          <path d="M355.43,144.89c-.87-.87-1.31-2.07-1.31-3.61v-65.42c0-1.53.44-2.73,1.31-3.61.87-.87,2.04-1.31,3.5-1.31s2.75.44,3.66,1.31c.9.87,1.36,2.07,1.36,3.61v65.42c0,1.53-.46,2.74-1.36,3.61-.91.87-2.13,1.31-3.66,1.31s-2.63-.44-3.5-1.31ZM355.8,60.4c0-.49.1-.98.31-1.46l6.27-14.84c.91-2.23,2.26-3.34,4.08-3.34.69,0,1.53.21,2.51.63,1.81.98,2.72,2.16,2.72,3.55,0,.7-.25,1.46-.73,2.3l-8.26,14.42c-.83,1.32-1.98,1.99-3.45,1.99-.49,0-1.01-.11-1.57-.31-1.25-.63-1.88-1.6-1.88-2.93h0Z"/>
          <path d="M380.25,142.44c-2.19-1.81-3.29-4.39-3.29-7.73,0-2.51.5-4.67,1.52-6.48,1.01-1.81,2.84-3.73,5.49-5.75l42.43-33.76c1.18-.98,2.02-1.86,2.51-2.66.49-.8.73-1.79.73-2.98,0-1.04-.31-1.83-.94-2.35s-1.67-.78-3.13-.78h-41.18c-1.6,0-2.91-.35-3.92-1.04s-1.51-1.64-1.51-2.82c0-1.32.49-2.33,1.46-3.03.98-.69,2.3-1.04,3.97-1.04h42.85c3.9,0,6.95.87,9.15,2.61,2.19,1.74,3.29,4.35,3.29,7.84,0,2.65-.49,4.83-1.46,6.53-.98,1.71-2.82,3.61-5.54,5.7l-42.53,33.76c-1.19.98-2,1.88-2.46,2.72-.45.84-.68,1.85-.68,3.03,0,2.02,1.57,3.03,4.7,3.03h43.47c1.53,0,2.8.35,3.81,1.04,1.01.7,1.52,1.64,1.52,2.82,0,1.32-.51,2.33-1.52,3.03-1.01.7-2.28,1.04-3.81,1.04h-45.77c-3.9,0-6.95-.9-9.14-2.72h-.02Z"/>
          <path d="M454.13,141.5c-2.58-2.44-3.87-5.82-3.87-10.14v-45.88c0-4.18,1.25-7.47,3.76-9.88,2.51-2.4,5.99-3.61,10.45-3.61h32.4c3.27,0,4.91,1.36,4.91,4.08,0,1.19-.44,2.13-1.31,2.82-.87.7-2.07,1.04-3.61,1.04h-31.56c-1.6,0-2.87.52-3.81,1.57s-1.41,2.44-1.41,4.18v18.08h28.84c3.27,0,4.91,1.36,4.91,4.08,0,1.25-.44,2.23-1.31,2.93s-2.07,1.05-3.61,1.05h-28.84v19.65c0,1.74.47,3.13,1.41,4.18.94,1.04,2.21,1.57,3.81,1.57h33.86c1.6,0,2.82.33,3.66.99s1.25,1.65,1.25,2.98c0,1.25-.44,2.23-1.31,2.93s-2.07,1.04-3.61,1.04h-34.38c-4.53,0-8.08-1.22-10.66-3.66h.03Z"/>
          <path d="M526.86,142.8c-5.75-2.26-10.4-5.42-13.95-9.46-.7-.9-1.04-1.78-1.04-2.61,0-1.32.59-2.47,1.78-3.45.77-.63,1.57-.94,2.4-.94,1.25,0,2.54.66,3.87,1.99,2.99,3.07,6.71,5.45,11.13,7.16s9.28,2.56,14.58,2.56c5.57,0,9.91-1.03,13.01-3.08,3.1-2.05,4.65-4.93,4.65-8.62,0-3.41-1.53-6.18-4.6-8.31s-8.33-3.99-15.78-5.59c-10.24-2.3-17.63-5.19-22.16-8.67-4.53-3.48-6.79-8.08-6.79-13.79,0-3.83,1.15-7.18,3.45-10.03,2.3-2.86,5.57-5.07,9.82-6.64s9.2-2.35,14.84-2.35c6.41,0,12.16,1.1,17.24,3.29,5.09,2.19,8.78,5.17,11.08,8.94.56.83.84,1.71.84,2.61,0,1.4-.66,2.54-1.99,3.45-.63.42-1.36.63-2.19.63-.77,0-1.53-.19-2.3-.58-.77-.38-1.39-.89-1.88-1.51-2.02-2.79-4.83-4.93-8.41-6.43-3.59-1.5-7.72-2.25-12.38-2.25-5.92,0-10.44.93-13.53,2.77-3.1,1.85-4.65,4.55-4.65,8.1,0,2.16.63,4.02,1.88,5.59,1.26,1.57,3.31,2.96,6.17,4.18s6.79,2.42,11.81,3.61c10.52,2.44,18.08,5.45,22.68,9.04,4.6,3.59,6.9,8.24,6.9,13.95,0,4.04-1.13,7.54-3.4,10.5s-5.49,5.26-9.67,6.9-9.06,2.46-14.63,2.46c-6.76,0-13.01-1.13-18.76-3.4l-.02-.02Z"/>
          <path d="M610.82,144.17c-3.26-1.35-5.75-3.29-7.48-5.81-1.72-2.52-2.58-5.45-2.58-8.79,0-3.87,1.22-7.21,3.66-10.02,2.44-2.81,5.91-5.06,10.42-6.76-2.17-1.7-3.86-3.46-5.05-5.29s-1.79-3.86-1.79-6.09c0-3.87,1.26-6.92,3.78-9.15s6.01-3.34,10.46-3.34c4.19,0,7.54,1.11,10.06,3.34,2.52,2.23,3.78,5.3,3.78,9.23,0,2.65-.85,5.09-2.55,7.32s-4.14,4.11-7.32,5.65l14.64,13.84c1.11-1.91,1.94-3.8,2.47-5.69.53-1.88.93-4.1,1.19-6.64.11-1.01.46-1.8,1.07-2.39.61-.58,1.39-.88,2.35-.88,1.27,0,2.25.41,2.94,1.23s.98,1.76.88,2.82c-1.01,6.84-2.89,12.33-5.65,16.47l7.72,7.32c.74.74,1.11,1.51,1.11,2.31s-.37,1.56-1.11,2.31c-.64.64-1.41.95-2.31.95-.85,0-1.54-.27-2.07-.79l-7.72-7.24c-1.86,1.96-4.41,3.81-7.68,5.53-3.26,1.72-7.15,2.58-11.65,2.58s-8.31-.68-11.57-2.03h0ZM630.83,138.44c2.6-1.14,4.69-2.77,6.28-4.89l-17.18-16.23c-3.92,1.17-6.89,2.73-8.91,4.69-2.02,1.96-3.02,4.48-3.02,7.56s1.3,5.67,3.9,7.64c2.6,1.96,6.07,2.94,10.42,2.94,3.07,0,5.91-.57,8.51-1.71h0ZM628.92,101.42c0-2.01-.61-3.59-1.83-4.73-1.22-1.14-2.89-1.71-5.01-1.71s-3.86.57-5.05,1.71-1.79,2.69-1.79,4.65c0,1.7.5,3.2,1.51,4.49,1.01,1.3,2.57,2.77,4.69,4.41,4.98-2.28,7.48-5.22,7.48-8.83h0Z"/>
          <path d="M209.19,234.81c-.87-.87-1.31-2.07-1.31-3.61v-39.4c0-9.68,2.75-17.26,8.26-22.73,5.5-5.47,13.1-8.2,22.78-8.2,6.41,0,11.97,1.24,16.67,3.71,4.7,2.47,8.29,6.05,10.76,10.71,2.47,4.67,3.71,10.17,3.71,16.51v39.4c0,1.53-.45,2.74-1.36,3.61-.91.87-2.13,1.31-3.66,1.31s-2.65-.44-3.55-1.31c-.91-.87-1.36-2.07-1.36-3.61v-21.32h-42.43v21.32c0,1.53-.44,2.74-1.31,3.61s-2.07,1.31-3.61,1.31-2.74-.44-3.61-1.31h.02ZM260.13,201.94v-10.45c0-7.24-1.81-12.8-5.43-16.67s-8.88-5.8-15.78-5.8-12.16,1.9-15.78,5.7-5.43,9.39-5.43,16.77v10.45h42.43-.01Z"/>
          <path d="M279.64,175.81c0-4.25,1.25-7.63,3.76-10.14s6.1-3.76,10.76-3.76h19.23c19.58,0,29.37,7.94,29.37,23.83,0,7.53-2.27,13.29-6.79,17.3-4.53,4.01-11.11,6.01-19.75,6.01l18.81,19.23c.77.77,1.15,1.78,1.15,3.03,0,1.39-.56,2.54-1.67,3.45-1.05.84-2.13,1.25-3.24,1.25-1.67,0-3.17-.77-4.49-2.3l-23.62-24.56h-12.96v21.84c0,1.6-.49,2.86-1.46,3.76s-2.26,1.36-3.87,1.36-2.87-.45-3.81-1.36-1.41-2.16-1.41-3.76v-55.18h-.01ZM313.61,200.79c6.48,0,11.18-1.15,14.11-3.45s4.39-6.17,4.39-11.6-1.52-9.46-4.55-11.86-7.68-3.61-13.95-3.61h-18.29c-1.53,0-2.77.51-3.71,1.52-.94,1.01-1.41,2.39-1.41,4.13v24.87h23.41Z"/>
          <path d="M364.21,231.41c-5.75-3.13-10.21-7.54-13.38-13.22-3.17-5.68-4.76-12.24-4.76-19.7s1.58-14.02,4.76-19.7c3.17-5.68,7.63-10.09,13.38-13.22s12.31-4.7,19.7-4.7,13.95,1.57,19.7,4.7,10.2,7.54,13.38,13.22c3.17,5.68,4.75,12.25,4.75,19.7s-1.59,14.02-4.75,19.7c-3.17,5.68-7.63,10.09-13.38,13.22s-12.32,4.7-19.7,4.7-13.95-1.57-19.7-4.7ZM398.49,224.46c4.21-2.33,7.51-5.73,9.88-10.19s3.55-9.72,3.55-15.78-1.22-11.51-3.66-15.94c-2.44-4.42-5.82-7.79-10.14-10.08-4.32-2.3-9.27-3.45-14.84-3.45s-10.12,1.19-14.27,3.55c-4.15,2.37-7.35,5.77-9.61,10.19-2.27,4.42-3.4,9.67-3.4,15.73s1.17,11.32,3.5,15.78,5.61,7.86,9.82,10.19c4.22,2.33,9.07,3.5,14.58,3.5s10.36-1.17,14.58-3.5h.01Z"/>
          <path d="M429.99,234.81c-.87-.87-1.31-2.07-1.31-3.61v-45.77c0-7.66,2.14-13.67,6.43-18.03,4.28-4.35,10.22-6.53,17.82-6.53,4.18,0,8.05,1.04,11.6,3.13,3.55,2.09,6.34,4.95,8.36,8.57,2.02-3.69,4.77-6.57,8.26-8.62,3.48-2.05,7.35-3.08,11.6-3.08,7.59,0,13.55,2.18,17.87,6.53s6.48,10.36,6.48,18.03v45.77c0,1.53-.46,2.74-1.36,3.61-.91.87-2.13,1.31-3.66,1.31s-2.72-.44-3.55-1.31c-.84-.87-1.26-2.07-1.26-3.61v-45.77c0-5.5-1.15-9.61-3.45-12.33-2.3-2.72-6.1-4.08-11.39-4.08-4.6,0-8.2,1.45-10.82,4.34-2.61,2.89-3.92,6.92-3.92,12.07v45.77c0,1.53-.44,2.74-1.31,3.61s-2.04,1.31-3.5,1.31-2.72-.44-3.55-1.31c-.84-.87-1.25-2.07-1.25-3.61v-45.77c0-5.02-1.34-9-4.02-11.97-2.68-2.96-6.29-4.44-10.82-4.44-5.23,0-8.99,1.38-11.29,4.13-2.3,2.75-3.45,6.85-3.45,12.28v45.77c0,1.53-.45,2.74-1.36,3.61-.91.87-2.13,1.31-3.66,1.31s-2.63-.44-3.5-1.31h.01Z"/>
          <path d="M529.54,234.81c-.87-.87-1.31-2.07-1.31-3.61v-39.4c0-9.68,2.75-17.26,8.26-22.73,5.5-5.47,13.1-8.2,22.78-8.2,6.41,0,11.97,1.24,16.67,3.71s8.29,6.05,10.76,10.71c2.47,4.67,3.71,10.17,3.71,16.51v39.4c0,1.53-.45,2.74-1.36,3.61s-2.13,1.31-3.66,1.31-2.65-.44-3.55-1.31c-.91-.87-1.36-2.07-1.36-3.61v-21.32h-42.43v21.32c0,1.53-.44,2.74-1.31,3.61s-2.07,1.31-3.61,1.31-2.74-.44-3.61-1.31h.02ZM580.48,201.94v-10.45c0-7.24-1.81-12.8-5.43-16.67s-8.88-5.8-15.78-5.8-12.16,1.9-15.78,5.7c-3.62,3.8-5.43,9.39-5.43,16.77v10.45h42.43,0Z"/>
          <path d="M614.76,232.72c-5.75-2.26-10.4-5.42-13.95-9.46-.7-.9-1.04-1.78-1.04-2.61,0-1.32.59-2.47,1.78-3.45.77-.63,1.57-.94,2.4-.94,1.25,0,2.54.66,3.87,1.99,2.99,3.07,6.71,5.45,11.13,7.16s9.28,2.56,14.58,2.56c5.57,0,9.91-1.03,13.01-3.08,3.1-2.05,4.65-4.93,4.65-8.62,0-3.41-1.53-6.18-4.6-8.31-3.07-2.13-8.33-3.99-15.78-5.59-10.24-2.3-17.63-5.19-22.16-8.67-4.53-3.48-6.79-8.08-6.79-13.79,0-3.83,1.15-7.18,3.45-10.03,2.3-2.86,5.57-5.07,9.82-6.64,4.25-1.57,9.2-2.35,14.84-2.35,6.41,0,12.16,1.1,17.24,3.29,5.09,2.19,8.78,5.17,11.08,8.94.56.83.84,1.71.84,2.61,0,1.4-.66,2.54-1.99,3.45-.63.42-1.36.63-2.19.63-.77,0-1.53-.19-2.3-.58-.77-.38-1.39-.89-1.88-1.51-2.02-2.79-4.83-4.93-8.41-6.43-3.59-1.5-7.72-2.25-12.38-2.25-5.92,0-10.44.93-13.53,2.77-3.1,1.85-4.65,4.55-4.65,8.1,0,2.16.63,4.02,1.88,5.59,1.26,1.57,3.31,2.96,6.17,4.18,2.86,1.22,6.79,2.42,11.81,3.61,10.52,2.44,18.08,5.45,22.68,9.04s6.9,8.24,6.9,13.95c0,4.04-1.13,7.54-3.4,10.5s-5.49,5.26-9.67,6.9-9.06,2.46-14.63,2.46c-6.76,0-13.01-1.13-18.76-3.4l-.02-.02Z"/>
        </g>
      </g>
    </g>
  </g>
</svg>